# xmcd CD database file
#
# Track frame offsets:
#	150
#	12888
#	22736
#	35339
#	50969
#	66080
#	82194
#	93100
#	110718
#	123113
#	139090
#	149957
#
# Disc length: 2192 seconds
#
# Revision: 0
# Processed by: cddbd v1.5.2PL0 Copyright (c) Steve Scherf et al.
# Submitted via: CDex 1.51
#
DISCID=a7088e0c
DTITLE=Bena and Radvanyi - Nemam Hlad, Nemam Smad
DYEAR=2012
DGENRE=Blues
TTITLE0=Big Road Blues
TTITLE1=I Love To Live My Life Today
TTITLE2=Travelling Blues
TTITLE3=Zda Sa Ze Koncim
TTITLE4=Diving Duck
TTITLE5=Drinking Blues
TTITLE6=Nemam Hlad Nemam Smad
TTITLE7=She's About A Mover
TTITLE8=Talkative Woman
TTITLE9=The King Of The Blues
TTITLE10=Stop Drinking That Wine
TTITLE11=I Had A Battle With My Whiskey Bottle
EXTD=YEAR: 2012
EXTT0=
EXTT1=
EXTT2=
EXTT3=
EXTT4=
EXTT5=
EXTT6=
EXTT7=
EXTT8=
EXTT9=
EXTT10=
EXTT11=
PLAYORDER=
